<?xml version="1.0" standalone="no"?><!DOCTYPE svg PUBLIC "-//W3C//DTD SVG 1.1//EN" "http://www.w3.org/Graphics/SVG/1.1/DTD/svg11.dtd"><svg t="1774267067848" class="icon" viewBox="0 0 1024 1024" version="1.1" xmlns="http://www.w3.org/2000/svg" p-id="2027" xmlns:xlink="http://www.w3.org/1999/xlink" width="200" height="200"><path d="M0 0m0 0l1024 0q0 0 0 0l0 1024q0 0 0 0l-1024 0q0 0 0 0l0-1024q0 0 0 0Z" fill="#ffffff" p-id="2028" class="selected"></path><path d="M312.157091 352.512c12.939636-8.750545 30.603636 0.302545 30.603636 15.709091v287.557818c0 15.825455-18.571636 24.785455-31.418182 15.127273L131.607273 535.505455a37.701818 37.701818 0 0 1 1.582545-61.672728l178.967273-121.320727z" fill="#247ADE" p-id="2029"></path><path d="M728.785455 352.512c-12.939636-8.750545-30.603636 0.302545-30.603637 15.709091v287.557818c0 15.825455 18.571636 24.785455 31.394909 15.127273l179.781818-135.400727a37.701818 37.701818 0 0 0-1.582545-61.672728l-178.990545-121.320727z" fill="#A0BFF7" p-id="2030"></path><path d="M426.193455 728.133818c4.957091 2.676364 12.264727-1.163636 16.337454-8.610909l220.555636-405.131636c4.072727-7.447273 3.328-15.709091-1.62909-18.385455l-44.846546-24.436363c-4.957091-2.699636-12.264727 1.163636-16.337454 8.610909l-220.555637 405.131636c-4.072727 7.447273-3.328 15.685818 1.629091 18.385455l44.846546 24.436363z" fill="#69CB91" p-id="2031"></path></svg>