<?xml version="1.0" standalone="no"?><!DOCTYPE svg PUBLIC "-//W3C//DTD SVG 1.1//EN" "http://www.w3.org/Graphics/SVG/1.1/DTD/svg11.dtd"><svg t="1711367214369" class="icon" viewBox="0 0 1024 1024" version="1.1" xmlns="http://www.w3.org/2000/svg" p-id="12150" xmlns:xlink="http://www.w3.org/1999/xlink" width="200" height="200"><path d="M674.138 853.338H870.4V657.062c0-108.39-87.872-196.262-196.262-196.262-108.404 0-196.276 87.872-196.276 196.262 0 108.404 87.872 196.276 196.276 196.276z" fill="#FDC8CF" p-id="12151"></path><path d="M465.382 794.24H153.6V482.432c0-172.186 139.584-311.782 311.782-311.782 172.199 0 311.783 139.596 311.783 311.782 0 172.198-139.584 311.782-311.783 311.782z" fill="#FA5C71" p-id="12152" data-spm-anchor-id="a313x.search_index.0.i12.26893a81VtTgMV" class="selected"></path><path d="M526.182 609.715a28.34 28.34 0 0 1-12.902-3.264l-62.08-32.589-62.067 32.59a27.494 27.494 0 0 1-39.962-28.34l11.776-69.158-50.176-48.896a27.635 27.635 0 0 1 15.155-47.053l69.453-10.061 31.168-62.925a27.354 27.354 0 0 1 49.319 0l31.04 62.925 69.44 10.06a27.635 27.635 0 0 1 15.308 47.054l-50.176 48.473 11.776 69.159a28.34 28.34 0 0 1-27.072 32.307v-0.282z" fill="#FFFFFF" p-id="12153"></path></svg>