<?xml version="1.0" standalone="no"?><!DOCTYPE svg PUBLIC "-//W3C//DTD SVG 1.1//EN" "http://www.w3.org/Graphics/SVG/1.1/DTD/svg11.dtd"><svg t="1711366589231" class="icon" viewBox="0 0 1024 1024" version="1.1" xmlns="http://www.w3.org/2000/svg" p-id="5314" xmlns:xlink="http://www.w3.org/1999/xlink" width="200" height="200"><path d="M588.8 522.24l-25.6 25.6-120.32 64c-12.8 7.68-17.92 20.48-10.24 33.28l58.88 120.32 10.24 53.76h-104.96C273.92 819.2 179.2 819.2 179.2 752.64v-12.8C179.2 614.4 276.48 512 396.8 512h128c23.04 0 43.52 2.56 64 10.24zM448 128c92.16 0 166.4 79.36 166.4 179.2s-74.24 179.2-166.4 179.2-166.4-79.36-166.4-179.2 74.24-179.2 166.4-179.2z" fill="#A5C8F4" p-id="5315"></path><path d="M519.68 663.04l53.76 56.32c5.12 5.12 7.68 12.8 7.68 20.48l-12.8 79.36c-2.56 20.48 15.36 33.28 33.28 25.6l66.56-35.84c7.68-2.56 15.36-2.56 20.48 0l66.56 35.84c17.92 10.24 35.84-5.12 33.28-25.6l-12.8-79.36c-2.56-7.68 0-15.36 7.68-20.48l53.76-56.32c12.8-12.8 5.12-38.4-12.8-40.96l-74.24-10.24c-7.68 0-12.8-5.12-17.92-12.8l-33.28-71.68c-2.56-7.68-12.8-12.8-20.48-12.8-7.68 0-17.92 5.12-20.48 12.8l-33.28 71.68c-2.56 7.68-10.24 12.8-17.92 12.8l-74.24 10.24c-20.48 2.56-28.16 25.6-12.8 40.96z" fill="#2589FF" p-id="5316"></path></svg>